<?xml version="1.0" standalone="no"?>
<!DOCTYPE svg PUBLIC "-//W3C//DTD SVG 20010904//EN"
 "http://www.w3.org/TR/2001/REC-SVG-20010904/DTD/svg10.dtd">
<svg version="1.0" xmlns="http://www.w3.org/2000/svg"
 width="320.000000pt" height="815.000000pt" viewBox="0 0 320.000000 815.000000"
 preserveAspectRatio="xMidYMid meet">

<g transform="translate(0.000000,815.000000) scale(0.100000,-0.100000)"
fill="#000000" stroke="none">
<path d="M1370 7390 c-103 -27 -226 -90 -313 -160 -202 -163 -308 -386 -308
-649 0 -238 76 -419 250 -591 83 -83 110 -103 201 -148 150 -75 205 -87 385
-87 129 0 160 3 225 23 298 94 511 315 580 605 30 125 24 131 -26 27 -39 -79
-61 -108 -133 -180 -143 -143 -304 -210 -501 -210 -400 0 -714 312 -713 710 0
125 18 203 72 315 68 138 178 247 325 321 99 50 86 57 -44 24z"/>
<path d="M1470 4745 l0 -265 -270 0 -270 0 0 -135 0 -135 270 0 270 0 0 -535
0 -535 130 0 130 0 0 535 0 535 270 0 270 0 0 135 0 135 -270 0 -270 0 0 265
0 265 -130 0 -130 0 0 -265z"/>
<path d="M1479 2267 l-127 -222 -261 -5 -262 -5 126 -220 c68 -121 125 -225
125 -231 0 -6 -56 -110 -125 -230 l-125 -219 259 -3 260 -2 128 -225 c70 -124
130 -225 133 -225 3 0 61 99 130 220 l125 219 264 1 c232 0 262 2 257 15 -3 9
-60 111 -126 227 -66 116 -120 216 -120 222 0 6 56 109 125 229 69 120 125
220 125 222 0 3 -118 6 -262 7 l-262 3 -125 222 c-69 122 -128 222 -131 222
-3 0 -62 -100 -131 -222z m178 -149 l42 -73 -45 -3 c-24 -2 -64 -2 -88 0 l-45
3 42 73 c22 39 44 72 47 72 3 0 25 -33 47 -72z m-397 -232 c0 -15 -83 -145
-90 -141 -5 3 -27 37 -49 75 l-40 70 90 0 c49 0 89 -2 89 -4z m614 -145 c47
-82 86 -152 86 -157 0 -4 -39 -77 -87 -161 l-88 -153 -175 0 -175 0 -87 153
c-49 84 -88 157 -88 161 0 5 39 75 86 157 l86 149 178 0 178 0 86 -149z m236
97 c-17 -29 -36 -63 -42 -75 -18 -36 -16 -38 -77 70 l-32 57 90 0 91 0 -30
-52z m-892 -483 c23 -41 42 -77 42 -80 0 -3 -41 -5 -91 -5 -50 0 -89 3 -87 8
12 29 84 152 88 152 3 0 24 -34 48 -75z m877 2 c22 -39 42 -75 43 -79 2 -5
-37 -8 -87 -8 -50 0 -91 3 -91 7 0 9 84 153 90 153 3 0 23 -33 45 -73z m-436
-307 c-23 -38 -44 -70 -49 -70 -5 0 -26 32 -49 70 l-40 70 89 0 89 0 -40 -70z"/>
</g>
</svg>
