<?xml version="1.0" encoding="UTF-8"?>
<svg id="katman_1" data-name="katman 1" xmlns="http://www.w3.org/2000/svg" viewBox="0 0 1386.49 635.24">
  <defs>
    <style>
      .cls-1 {
        fill: #010101;
        stroke-width: 0px;
      }
    </style>
  </defs>
  <g>
    <path class="cls-1" d="m208.15,633.83v-101.07h11.56v101.07h-11.56Z"/>
    <path class="cls-1" d="m275.47,542.77v91.06h-11.49v-91.06h-34.25v-10.01h80v10.01h-34.25Z"/>
    <path class="cls-1" d="m300.71,633.83l37.07-101.07h16.21l36.93,101.07h-11.84l-10.08-28.4h-46.38l-10.08,28.4h-11.84Zm25.37-37.99h39.4l-19.17-52.37h-.7l-19.52,52.37Z"/>
    <path class="cls-1" d="m413.13,623.89h53.07v9.94h-64.63v-101.07h11.56v91.13Z"/>
    <path class="cls-1" d="m490.45,584.49h.7l32.77-51.73h12.12l-39.4,64v37.07h-11.56v-37.07l-39.26-64h12.26l32.35,51.73Z"/>
    <path class="cls-1" d="m525.27,600.49v-8.95h47.65v8.95h-47.65Z"/>
    <path class="cls-1" d="m605.2,542.77v91.06h-11.49v-91.06h-34.25v-10.01h80v10.01h-34.25Z"/>
    <path class="cls-1" d="m687.88,635.24c-25.7,0-38.55-12.08-38.55-36.23v-66.25h11.56v66.25c0,8.93,2.18,15.55,6.55,19.88,4.32,4.28,11.14,6.41,20.44,6.41h.28c9.26,0,16.05-2.14,20.37-6.41,4.42-4.32,6.63-10.95,6.63-19.88v-66.25h11.49v66.25c0,24.15-12.83,36.23-38.48,36.23h-.28Zm-18.4-120.03c0-1.93.68-3.57,2.04-4.93,1.36-1.36,3.01-2.04,4.93-2.04s3.64.68,5,2.04c1.36,1.36,2.04,3.01,2.04,4.93s-.68,3.64-2.04,5c-1.36,1.36-3.03,2.04-5,2.04s-3.57-.68-4.93-2.04c-1.36-1.36-2.04-3.03-2.04-5Zm23.12,0c0-1.93.68-3.57,2.04-4.93,1.36-1.36,2.98-2.04,4.86-2.04,2.02,0,3.71.68,5.07,2.04,1.36,1.36,2.04,3.01,2.04,4.93s-.68,3.64-2.04,5c-1.36,1.36-3.06,2.04-5.07,2.04-1.88,0-3.5-.68-4.86-2.04-1.36-1.36-2.04-3.03-2.04-5Z"/>
    <path class="cls-1" d="m745.33,633.83v-101.07h39.68c10.01,0,17.83,2.54,23.47,7.61s8.46,11.98,8.46,20.72v.85c0,7.19-1.95,13.09-5.85,17.69-3.85,4.56-9.47,7.52-16.85,8.88v.7c11.84,11.56,21.85,26.43,30.03,44.62h-12.26c-7.05-15.51-17.2-29.88-30.45-43.14h-24.67v43.14h-11.56Zm11.56-53.14h27.14c6.67,0,11.84-1.6,15.51-4.79,3.71-3.24,5.57-7.89,5.57-13.96v-.42c0-6.11-1.83-10.78-5.5-14.03s-8.86-4.86-15.57-4.86h-27.14v38.06Z"/>
    <path class="cls-1" d="m847.96,589.5c20.3-14.76,37.57-33.67,51.81-56.74h12.83c-11.09,17.95-23.12,33.41-36.09,46.38l38.13,54.69h-13.11l-33.34-46.66c-7.14,6.58-14.12,12.31-20.93,17.2v29.46h-11.56v-101.07h11.56v56.74h.7Z"/>
    <path class="cls-1" d="M 925.28 633.83 L 925.28 532.76 L 936.8399999999999 532.76 L 936.8399999999999 633.8299999999999 L 925.28 633.8299999999999 L 925.28 633.83 Z M 924.1 515.17 C 924.1 513.24 924.78 511.6 926.14 510.24 C 927.5 508.88 929.15 508.2 931.07 508.2 C 932.99 508.2 934.71 508.88 936.07 510.24 C 937.43 511.6 938.11 513.25 938.11 515.17 C 938.11 517.09 937.43 518.81 936.07 520.17 C 934.71 521.53 933.04 522.21 931.07 522.21 C 929.1 522.21 927.5 521.53 926.14 520.17 C 924.78 518.81 924.1 517.14 924.1 515.17 Z"/>
    <path class="cls-1" d="m990.76,584.49h.7l32.77-51.73h12.12l-39.4,64v37.07h-11.56v-37.07l-39.26-64h12.26l32.35,51.73Z"/>
    <path class="cls-1" d="m1057.09,623.89h55.4v9.94h-66.96v-101.07h66.96v10.01h-55.4v34.47h53.99v9.94h-53.99v36.72Z"/>
  </g>
  <g>
    <path class="cls-1" d="m1339.16,296.92v31.4h-3.96v-31.4h-11.81v-3.45h27.59v3.45h-11.81Z"/>
    <path class="cls-1" d="m1354.38,328.32v-34.85h4.03l11.93,18.37h.24l11.86-18.37h4.03v34.85h-3.89v-27.88h-.24l-10.21,15.58h-3.38l-10.21-15.58h-.24v27.88h-3.94Z"/>
  </g>
  <g>
    <path class="cls-1" d="m602.17,1.86c112.88-11.2,230.74,28.51,310.82,109.51-4.18,5.03-8.31,10.13-12.37,15.28-62.49-62.85-148.65-100.84-237.01-106.02-104.15-7.09-210.93,31.54-284.53,105.95-4.2-5.03-8.33-10.11-12.46-15.19C428.86,48.45,514.3,10,602.17,1.86"/>
    <path class="cls-1" d="m545.2,54.77c19.39-4.06,38.83-7.93,58.27-11.84,1.5,7.28,2.97,14.59,4.39,21.93-15,2.97-29.91,6.27-44.93,8.93.81,5.15,1.73,10.32,2.8,15.45,13.88-2.52,27.63-5.77,41.56-8.17,1.31,7.15,2.78,14.27,4.32,21.36-13.67,3.18-27.48,5.72-41.25,8.48,1.12,4.51.76,10.06,4.46,13.45,3.28,1.95,7.17.05,10.66-.26,11.01-2.3,22.03-4.63,33.09-6.74,1.52,7.36,3.11,14.72,4.22,22.17-15.66,2.19-30.9,7.31-46.71,8.19-12.84.78-24.33-9.21-26.58-21.6-4.27-19.91-8.19-39.9-12.25-59.83-1.8-5.41,2.4-11.11,7.95-11.51"/>
    <path class="cls-1" d="m684.76,70.81c3.13-12.63,15.85-21.55,28.84-19.63,15.26,2.28,29.95,7.41,44.98,10.89-1.95,7.29-3.42,14.69-6.12,21.74-11.25-3.37-22.67-6.03-33.96-9.06-3.25-.52-7.64-2.52-10.02.81-2.25,3.53-2.85,7.81-4.08,11.75,13.48,3.66,27.01,7.17,40.59,10.49-1.33,7.26-3.44,14.36-5.25,21.52-13.62-3.37-27.18-7-40.75-10.49-3.23,12.25-6.46,24.47-9.45,36.77-7.43-2.4-21.27-1.9-20.72-12.84,4.87-20.75,10.49-41.35,15.95-61.95"/>
    <path class="cls-1" d="m446.33,101.79c6.05-4.99,12.15-9.95,18.28-14.86,12.22,14.86,24.28,29.86,36.46,44.76,5.81,6.96,10.02,15.55,10.3,24.73.93,28.48-30.69,52.9-57.98,44.03-8.76-2.78-15.52-9.4-21.05-16.45-11.42-14.4-23.45-28.31-34.56-42.93,6.1-4.75,12.08-9.66,17.99-14.64,13.36,15.4,25.32,31.99,39.04,47.04,11.2,11.44,31.83.19,32.28-14.55.47-6-3.35-11.02-6.84-15.45-11.34-13.86-22.59-27.81-33.92-41.67"/>
    <path class="cls-1" d="m830.68,109.67c9.09-8.35,26.32,3.84,21.86,15.19-9.28,31.9-18.51,63.8-27.82,95.7-6.46-6.05-13.15-11.84-19.39-18.09,1.42-4.44,2.82-8.86,4.22-13.29-5.72-4.58-11.65-8.88-17.52-13.24,4.68-3.4,9.38-6.74,14.12-10.02,2.63,1.92,5.41,3.73,8.28,5.34,2.9-10.01,5.93-19.98,8.83-29.98-17.66,11.39-35.34,22.74-52.9,34.27-7.43-4.06-15.07-7.86-21.95-12.8,27.56-17.49,54.83-35.41,82.26-53.09"/>
    <path class="cls-1" d="m601.17,166.86c75.45-13.32,157.9,13.81,207.63,72.84-3.94,5.01-7.95,9.94-12.08,14.79-29.81-35.74-72.51-59.98-118.17-68.52-70.92-13.93-149.22,12.13-195.26,68.4-4.68-4.44-8.45-9.66-12.48-14.62,32.78-39.05,80.36-64.39,130.37-72.89"/>
  </g>
  <g>
    <polygon class="cls-1" points="0 485.4 136.07 485.4 136.07 447.16 43.7 447.16 43.7 408.14 133.53 408.14 133.53 369.91 43.7 369.91 43.7 334.19 136.07 334.19 136.07 295.96 0 295.96 0 485.4"/>
    <path class="cls-1" d="m281.96,415.96c0,11.75-2.64,20.38-7.87,25.69-5.28,5.43-14.29,8.18-26.76,8.18h-.51c-12.23,0-21.1-2.75-26.38-8.18-5.31-5.45-8-14.1-8-25.69v-120.01h-43.7v120.01c0,23.67,6.91,41.81,20.52,53.9,13.41,11.99,32.78,18.07,57.56,18.07h.51c24.94,0,44.39-6.08,57.8-18.07,13.62-12.1,20.53-30.24,20.53-53.91v-120.01h-43.7v120.01Z"/>
    <path class="cls-1" d="m474.86,405.93c20.57-9.35,30.99-26.09,30.99-49.81v-2.16c0-17.42-5.91-31.62-17.58-42.2-11.56-10.49-27.6-15.8-47.66-15.8h-82.27v189.44h43.7v-69.76h27.35c20.22,21.67,35.13,44.36,44.33,67.48l.91,2.28h46.39l-1.79-4.86c-11.08-30.14-26-55.22-44.36-74.61Zm-13.47-49.81c0,7-2.03,12.12-6.22,15.67-4.39,3.73-10.61,5.62-18.5,5.62h-34.63v-43.22h34.63c7.89,0,14.11,1.89,18.5,5.62,4.19,3.55,6.22,8.72,6.22,15.8v.51Z"/>
    <path class="cls-1" d="m624.98,287.96c-55.13,0-99.83,45-99.83,100.5s44.69,100.5,99.83,100.5,99.83-45,99.83-100.5-44.69-100.5-99.83-100.5Zm0,156.55c-27.44,0-49.69-25.11-49.69-56.08s22.25-56.08,49.69-56.08,49.69,25.11,49.69,56.08-22.25,56.08-49.69,56.08Z"/>
    <path class="cls-1" d="m835.26,401.53c19.1-16.74,28.78-34.79,28.78-53.62v-1.22c0-16.72-6.17-30.01-18.34-39.48-11.54-9.04-27.17-13.62-46.45-13.62h-.49c-26.29,0-48.41,7.82-65.74,23.24l-4.22,3.76,17.62,24.13,5.12-4.61c12.65-11.38,27.82-16.91,46.36-16.91h.49c9.86,0,18.05,2.21,24.34,6.56,5.73,3.97,8.4,9.58,8.4,17.65v.97c0,10.67-5.93,21.35-17.7,31.81l-83.84,76.72v26.13h141.62v-29.61h-91.79l55.82-51.92Z"/>
    <path class="cls-1" d="m950.72,293.6h-.49c-22.73,0-41.15,8.52-54.75,25.32-13.28,16.41-20.01,39.76-20.01,69.42v2.44c0,29.65,6.73,53.01,20.01,69.42,13.6,16.8,32.02,25.32,54.75,25.32h.49c22.81,0,41.27-8.52,54.88-25.32,13.2-16.32,19.89-39.68,19.89-69.41v-2.44c0-29.73-6.69-53.09-19.89-69.42-13.6-16.8-32.06-25.32-54.87-25.32Zm42.11,97.17c0,21.42-3.93,38.01-11.7,49.33-7.27,10.63-17.22,15.8-30.41,15.8h-.49c-13.11,0-23.02-5.17-30.29-15.8-7.68-11.22-11.58-27.82-11.58-49.32v-2.44c0-21.42,3.89-37.98,11.57-49.2,7.35-10.72,17.27-15.93,30.3-15.93h.49c13.11,0,23.07,5.21,30.42,15.93,7.76,11.3,11.69,27.86,11.69,49.2v2.44Z"/>
    <path class="cls-1" d="m1147.69,385.15c4.13-2.9,7.71-6.36,10.69-10.34,5.77-7.57,8.7-16.87,8.7-27.64v-1.46c0-16.32-6.1-29.32-18.1-38.63-11.46-8.95-27.34-13.49-47.17-13.49h-.49c-26.5,0-48.93,7.8-66.66,23.2l-4.27,3.71,17.3,24.26,5.18-4.63c12.73-11.39,28.26-16.92,47.47-16.92h.49c10.95,0,19.57,2.39,25.62,7.08,5.61,4.4,8.33,10.32,8.33,18.11v.73c0,7.56-2.3,13.17-7.04,17.16-5.06,4.26-11.67,6.33-20.22,6.33h-34.83v29.37h38.36c10.01,0,17.99,2.36,23.74,7.03,5.48,4.4,8.14,10.42,8.14,18.4v1.1c0,8.63-3.04,15.07-9.28,19.7-6.91,5.09-17.46,7.68-31.37,7.68h-.49c-21.69,0-39.01-5.65-51.49-16.8l-5.16-4.61-17.34,24.11,4.29,3.72c17.73,15.39,41.42,23.19,70.43,23.19h.49c22.38,0,40.15-4.8,52.8-14.27,13.28-9.96,20.02-23.68,20.02-40.77v-1.46c0-12.57-3.81-23.18-11.33-31.55-4.58-5.1-10.21-9.21-16.82-12.29Z"/>
    <path class="cls-1" d="m1227.36,453.45l55.83-51.92c19.1-16.74,28.78-34.79,28.78-53.62v-1.22c0-16.72-6.17-30.01-18.34-39.48-11.54-9.04-27.17-13.62-46.45-13.62h-.49c-26.29,0-48.41,7.82-65.74,23.24l-4.22,3.76,17.62,24.13,5.12-4.61c12.65-11.38,27.81-16.91,46.36-16.91h.49c9.86,0,18.05,2.21,24.34,6.56,5.65,3.91,8.4,9.69,8.4,17.65v.97c0,10.67-5.93,21.35-17.7,31.81l-83.84,76.72v26.13h141.62v-29.61h-91.79Z"/>
  </g>
</svg>
